# xmcd
#
# Track frame offsets:
#	150
#	13577
#	27421
#	43271
#	60829
#	74749
#	91695
#	109123
#	120758
#	138578
#	157768
#	174232
#	186672
#	205341
#	219688
#	237677
#
# Disc length: 3379 seconds
#
# Revision: 0
# Processed by: cddbd v1.5.2PL0 Copyright (c) Steve Scherf et al.
# Submitted via: audiograbber 1.83.01
#
DISCID=e10d3110
DTITLE=Various Artist - Rhythm Is Gonna Get You CD2
DYEAR=2014
DGENRE=Dance
TTITLE0=Arrow - Hot Hot Hot
TTITLE1=Shaggy - Oh Carolina
TTITLE2=Sean Paul - Get Busy
TTITLE3=Gibson Brothers - Cuba
TTITLE4=The Isley Brothers and Studio Rio - It's Your Thing (Studio Rio Version)
TTITLE5=Sean Kingston - Beautiful Girls
TTITLE6=Pato Banton and The Reggae Revolution With Ali and Robin Campbell - Baby Co
TTITLE6=me Back
TTITLE7=Desmond Dekker and The Aces - Israelites
TTITLE8=Chaka Demus and Pliers ft Jack Radics and The Taxi Gang - Twist And Shout
TTITLE9=CJ Lewis - Sweets For My Sweet
TTITLE10=Aswad - Don't Turn Around
TTITLE11=Gyptian - Hold You
TTITLE12=Marvin Gaye and Studio Rio - Sexual Healing (Studio Rio Version)
TTITLE13=Juanes - Me Enamora
TTITLE14=Calle 13 - Atrévete Te Te
TTITLE15=Wyclef Jean - Guantanamera
EXTD=
EXTT0=
EXTT1=
EXTT2=
EXTT3=
EXTT4=
EXTT5=
EXTT6=
EXTT7=
EXTT8=
EXTT9=
EXTT10=
EXTT11=
EXTT12=
EXTT13=
EXTT14=
EXTT15=
PLAYORDER=
